<svg width="298" height="297" viewBox="0 0 298 297" fill="none" xmlns="http://www.w3.org/2000/svg">
<g opacity="0.4">
<g filter="url(#filter0_f_843_10287)">
<path d="M148.712 245.922C202.516 245.922 246.134 202.305 246.134 148.5C246.134 94.6954 202.516 51.0781 148.712 51.0781C94.9071 51.0781 51.2898 94.6954 51.2898 148.5C51.2898 202.305 94.9071 245.922 148.712 245.922Z" fill="url(#paint0_linear_843_10287)"/>
</g>
<g filter="url(#filter1_f_843_10287)">
<path fill-rule="evenodd" clip-rule="evenodd" d="M148.714 61.1562C100.475 61.1562 61.3701 100.261 61.3701 148.5C61.3701 196.739 100.475 235.844 148.714 235.844C196.952 235.844 236.058 196.739 236.058 148.5C236.058 100.261 196.952 61.1562 148.714 61.1562ZM41.2139 148.5C41.2139 89.1294 89.3433 41 148.714 41C208.084 41 256.214 89.1294 256.214 148.5C256.214 207.871 208.084 256 148.714 256C89.3433 256 41.2139 207.871 41.2139 148.5Z" fill="url(#paint1_linear_843_10287)"/>
</g>
</g>
<defs>
<filter id="filter0_f_843_10287" x="39.2898" y="39.0781" width="218.844" height="218.844" filterUnits="userSpaceOnUse" color-interpolation-filters="sRGB">
<feFlood flood-opacity="0" result="BackgroundImageFix"/>
<feBlend mode="normal" in="SourceGraphic" in2="BackgroundImageFix" result="shape"/>
<feGaussianBlur stdDeviation="6" result="effect1_foregroundBlur_843_10287"/>
</filter>
<filter id="filter1_f_843_10287" x="0.213867" y="0" width="297" height="297" filterUnits="userSpaceOnUse" color-interpolation-filters="sRGB">
<feFlood flood-opacity="0" result="BackgroundImageFix"/>
<feBlend mode="normal" in="SourceGraphic" in2="BackgroundImageFix" result="shape"/>
<feGaussianBlur stdDeviation="20.5" result="effect1_foregroundBlur_843_10287"/>
</filter>
<linearGradient id="paint0_linear_843_10287" x1="84.8835" y1="46.039" x2="222.618" y2="239.203" gradientUnits="userSpaceOnUse">
<stop stop-color="#E7BC1E" stop-opacity="0"/>
<stop offset="1" stop-color="#FFE173" stop-opacity="0.29"/>
</linearGradient>
<linearGradient id="paint1_linear_843_10287" x1="148.714" y1="41" x2="148.714" y2="256" gradientUnits="userSpaceOnUse">
<stop stop-color="#FFF8E1"/>
<stop offset="1" stop-color="#FFE277"/>
</linearGradient>
</defs>
</svg>
