<svg width="97" height="97" viewBox="0 0 97 97" fill="none" xmlns="http://www.w3.org/2000/svg">
<g filter="url(#filter0_d_843_10290)">
<path fill-rule="evenodd" clip-rule="evenodd" d="M20.6836 44.4995C20.6836 29.1372 33.1372 16.6836 48.4995 16.6836C63.8618 16.6836 76.3152 29.1372 76.3152 44.4995C76.3152 59.8615 63.8618 72.3153 48.4995 72.3153C33.1372 72.3153 20.6836 59.8615 20.6836 44.4995ZM48.4995 20.6736C35.3408 20.6736 24.6736 31.3408 24.6736 44.4995C24.6736 57.6582 35.3408 68.3253 48.4995 68.3253C61.6581 68.3253 72.3252 57.6582 72.3252 44.4995C72.3252 31.3408 61.6581 20.6736 48.4995 20.6736Z" fill="url(#paint0_linear_843_10290)"/>
</g>
<defs>
<filter id="filter0_d_843_10290" x="0.683594" y="0.683594" width="95.6316" height="95.6317" filterUnits="userSpaceOnUse" color-interpolation-filters="sRGB">
<feFlood flood-opacity="0" result="BackgroundImageFix"/>
<feColorMatrix in="SourceAlpha" type="matrix" values="0 0 0 0 0 0 0 0 0 0 0 0 0 0 0 0 0 0 127 0" result="hardAlpha"/>
<feOffset dy="4"/>
<feGaussianBlur stdDeviation="10"/>
<feComposite in2="hardAlpha" operator="out"/>
<feColorMatrix type="matrix" values="0 0 0 0 1 0 0 0 0 0.894118 0 0 0 0 0.501961 0 0 0 1 0"/>
<feBlend mode="normal" in2="BackgroundImageFix" result="effect1_dropShadow_843_10290"/>
<feBlend mode="normal" in="SourceGraphic" in2="effect1_dropShadow_843_10290" result="shape"/>
</filter>
<linearGradient id="paint0_linear_843_10290" x1="48.4994" y1="16.6836" x2="48.4994" y2="72.3153" gradientUnits="userSpaceOnUse">
<stop stop-color="#FFF8DE"/>
<stop offset="1" stop-color="#FFE37A"/>
</linearGradient>
</defs>
</svg>
