<svg width="140" height="62" viewBox="0 0 140 62" fill="none" xmlns="http://www.w3.org/2000/svg">
<g filter="url(#filter0_d_843_10322)">
<path fill-rule="evenodd" clip-rule="evenodd" d="M20 27C20 20.9249 24.9249 16 31 16C37.0752 16 42 20.9249 42 27C42 33.075 37.0752 38 31 38C24.9249 38 20 33.075 20 27ZM31 17.5779C25.7963 17.5779 21.5779 21.7963 21.5779 27C21.5779 32.2037 25.7963 36.4221 31 36.4221C36.2037 36.4221 40.4221 32.2037 40.4221 27C40.4221 21.7963 36.2037 17.5779 31 17.5779Z" fill="url(#paint0_linear_843_10322)"/>
</g>
<path d="M126.134 34.3919C123.151 34.3919 121.155 32.2956 121.155 29.131C121.155 25.9462 123.151 23.8701 126.053 23.8701C128.976 23.8701 130.81 26.0067 130.81 29.0907C130.81 29.393 130.79 29.6752 130.79 29.776H123.231C123.272 31.4692 124.36 32.7189 126.134 32.7189C127.505 32.7189 128.412 31.8925 128.754 30.9854L130.528 31.4692C130.024 33.2027 128.311 34.3919 126.134 34.3919ZM123.252 28.2844H128.714C128.654 26.692 127.605 25.6036 126.033 25.6036C124.441 25.6036 123.332 26.7525 123.252 28.2844Z" fill="#E4E4E9"/>
<path d="M110.83 34.1702V24.0918H112.866V25.7245H112.967C113.45 24.6361 114.579 23.85 116.172 23.85C118.328 23.85 119.84 25.2609 119.84 27.6596V34.1702H117.804V28.1434C117.804 26.8735 117.2 25.6238 115.506 25.6238C113.975 25.6238 112.866 26.7727 112.866 28.6876V34.1702H110.83Z" fill="#E4E4E9"/>
<path d="M106.607 34.1702V24.0918H108.602V34.1702H106.607ZM106.284 21.3102C106.284 20.5845 106.869 20 107.615 20C108.36 20 108.945 20.5845 108.945 21.3102C108.945 22.056 108.36 22.6405 107.615 22.6405C106.869 22.6405 106.284 22.056 106.284 21.3102Z" fill="#E4E4E9"/>
<path d="M102.407 34.1702V20.1612H104.403V34.1702H102.407Z" fill="#E4E4E9"/>
<path d="M96.3457 23.8701C98.966 23.8701 100.921 26.0269 100.921 29.131C100.921 32.1948 99.0064 34.3113 96.3658 34.3113C94.6122 34.3113 93.5036 33.4244 93.0399 32.4972H92.9392V38H90.9033V24.0918H92.9392V25.7043H93.0399C93.5036 24.7771 94.6122 23.8701 96.3457 23.8701ZM92.8988 29.0907C92.8988 31.2273 94.1889 32.5778 95.9022 32.5778C97.5954 32.5778 98.8653 31.2475 98.8653 29.1108C98.8653 26.9541 97.5752 25.6237 95.9022 25.6237C94.2292 25.6237 92.8988 26.9138 92.8988 29.0907Z" fill="#E4E4E9"/>
<path d="M86.6812 34.1702V24.0918H88.6767V34.1702H86.6812ZM86.3586 21.3102C86.3586 20.5845 86.9432 20 87.689 20C88.4348 20 89.0193 20.5845 89.0193 21.3102C89.0193 22.056 88.4348 22.6405 87.689 22.6405C86.9432 22.6405 86.3586 22.056 86.3586 21.3102Z" fill="#E4E4E9"/>
<path d="M80.9291 34.3919C78.0467 34.3919 75.8496 32.2755 75.8496 29.1108C75.8496 26.0067 77.9862 23.8701 80.909 23.8701C83.2673 23.8701 84.9202 25.2811 85.3838 27.0347L83.5898 27.5789C83.227 26.4905 82.3199 25.6439 80.9493 25.6439C79.0949 25.6439 77.8653 27.1153 77.8653 29.131C77.8653 31.2273 79.1755 32.6181 80.9694 32.6181C82.3401 32.6181 83.3076 31.7514 83.7108 30.6629L85.4241 31.1467C84.9 33.0011 83.2472 34.3919 80.9291 34.3919Z" fill="#E4E4E9"/>
<path d="M70.8422 34.4524C68.2016 34.4524 66.71 33.0213 66.4883 31.57L68.4032 31.187C68.5846 32.0739 69.4715 32.8601 70.9228 32.8601C72.2934 32.8601 73.1602 32.1546 73.1602 31.2274C73.1602 30.3606 72.4144 30.159 71.6887 30.0583L69.3102 29.7156C67.6775 29.4939 66.71 28.3853 66.71 26.9541C66.71 25.0594 68.4032 23.8097 70.822 23.8097C72.8578 23.8097 74.5308 24.757 74.8735 26.4704L72.9989 26.9138C72.7167 25.9463 71.85 25.4424 70.7615 25.4424C69.7335 25.4424 68.7055 25.8858 68.7055 26.8533C68.7055 27.6798 69.4513 27.9821 70.0964 28.0829L72.3338 28.4054C73.14 28.5263 75.1759 28.9093 75.1759 31.0863C75.1759 33.1624 73.3013 34.4524 70.8422 34.4524Z" fill="#E4E4E9"/>
<path d="M63.1123 34.1702V24.0918H65.1078V34.1702H63.1123ZM62.7898 21.3102C62.7898 20.5845 63.3743 20 64.1201 20C64.8659 20 65.4505 20.5845 65.4505 21.3102C65.4505 22.056 64.8659 22.6405 64.1201 22.6405C63.3743 22.6405 62.7898 22.056 62.7898 21.3102Z" fill="#E4E4E9"/>
<path d="M50 34.1702V20.3628H54.6562C58.5868 20.3628 61.5297 22.8623 61.5297 27.2363C61.5297 31.6305 58.5666 34.1702 54.6562 34.1702H50ZM52.1165 32.2755H54.6159C57.2363 32.2755 59.3729 30.6025 59.3729 27.2363C59.3729 23.8701 57.2565 22.2374 54.6361 22.2374H52.1165V32.2755Z" fill="#E4E4E9"/>
<defs>
<filter id="filter0_d_843_10322" x="0" y="0" width="62" height="62" filterUnits="userSpaceOnUse" color-interpolation-filters="sRGB">
<feFlood flood-opacity="0" result="BackgroundImageFix"/>
<feColorMatrix in="SourceAlpha" type="matrix" values="0 0 0 0 0 0 0 0 0 0 0 0 0 0 0 0 0 0 127 0" result="hardAlpha"/>
<feOffset dy="4"/>
<feGaussianBlur stdDeviation="10"/>
<feComposite in2="hardAlpha" operator="out"/>
<feColorMatrix type="matrix" values="0 0 0 0 1 0 0 0 0 0.894118 0 0 0 0 0.501961 0 0 0 1 0"/>
<feBlend mode="normal" in2="BackgroundImageFix" result="effect1_dropShadow_843_10322"/>
<feBlend mode="normal" in="SourceGraphic" in2="effect1_dropShadow_843_10322" result="shape"/>
</filter>
<linearGradient id="paint0_linear_843_10322" x1="31" y1="16" x2="31" y2="38" gradientUnits="userSpaceOnUse">
<stop stop-color="#FFF8DE"/>
<stop offset="1" stop-color="#FFE37A"/>
</linearGradient>
</defs>
</svg>
