<svg width="32" height="32" viewBox="0 0 32 32" fill="none" xmlns="http://www.w3.org/2000/svg">
<path d="M0 8C0 3.58172 3.58172 0 8 0H24C28.4183 0 32 3.58172 32 8V24C32 28.4183 28.4183 32 24 32H8C3.58172 32 0 28.4183 0 24V8Z" fill="#121216"/>
<path fill-rule="evenodd" clip-rule="evenodd" d="M16 24.25C20.5563 24.25 24.25 20.5563 24.25 16C24.25 11.4437 20.5563 7.75 16 7.75C11.4437 7.75 7.75 11.4437 7.75 16C7.75 20.5563 11.4437 24.25 16 24.25ZM16 28C22.6274 28 28 22.6274 28 16C28 9.3726 22.6274 4 16 4C9.3726 4 4 9.3726 4 16C4 22.6274 9.3726 28 16 28Z" fill="url(#paint0_linear_143_70882)"/>
<defs>
<linearGradient id="paint0_linear_143_70882" x1="16" y1="1.5" x2="16" y2="28" gradientUnits="userSpaceOnUse">
<stop stop-color="white" stop-opacity="0.53"/>
<stop offset="0.599855" stop-color="white"/>
<stop offset="1" stop-color="white" stop-opacity="0.43"/>
</linearGradient>
</defs>
</svg>
