<svg width="71" height="24" viewBox="0 0 71 24" fill="none" xmlns="http://www.w3.org/2000/svg">
<path d="M1 12C1 5.64873 6.14873 0.5 12.5 0.5C18.8513 0.5 24 5.64873 24 12C24 18.3513 18.8513 23.5 12.5 23.5C6.14873 23.5 1 18.3513 1 12Z" fill="#256E93"/>
<path d="M14.3574 9.56534C14.312 9.16193 14.1245 8.84943 13.7949 8.62784C13.4654 8.40341 13.0506 8.29119 12.5506 8.29119C12.1926 8.29119 11.883 8.34801 11.6216 8.46165C11.3603 8.57244 11.1571 8.72585 11.0123 8.92188C10.8702 9.11506 10.7992 9.33523 10.7992 9.58239C10.7992 9.78977 10.8475 9.96875 10.9441 10.1193C11.0435 10.2699 11.1728 10.3963 11.3319 10.4986C11.4938 10.598 11.6671 10.6818 11.8517 10.75C12.0364 10.8153 12.214 10.8693 12.3844 10.9119L13.2367 11.1335C13.5151 11.2017 13.8006 11.294 14.0932 11.4105C14.3858 11.527 14.6571 11.6804 14.9071 11.8707C15.1571 12.0611 15.3588 12.2969 15.5123 12.5781C15.6685 12.8594 15.7466 13.196 15.7466 13.5881C15.7466 14.0824 15.6188 14.5213 15.3631 14.9048C15.1103 15.2884 14.7424 15.5909 14.2594 15.8125C13.7793 16.0341 13.1983 16.1449 12.5165 16.1449C11.8631 16.1449 11.2978 16.0412 10.8205 15.8338C10.3432 15.6264 9.96964 15.3324 9.69975 14.9517C9.42987 14.5682 9.28072 14.1136 9.25231 13.5881H10.5733C10.5989 13.9034 10.7012 14.1662 10.8801 14.3764C11.062 14.5838 11.2935 14.7386 11.5748 14.8409C11.8588 14.9403 12.1699 14.9901 12.508 14.9901C12.8801 14.9901 13.2111 14.9318 13.5009 14.8153C13.7935 14.696 14.0236 14.5312 14.1912 14.321C14.3588 14.108 14.4426 13.8594 14.4426 13.5753C14.4426 13.3168 14.3688 13.1051 14.2211 12.9403C14.0762 12.7756 13.8787 12.6392 13.6287 12.5312C13.3816 12.4233 13.1017 12.3281 12.7892 12.2457L11.758 11.9645C11.0591 11.7741 10.5051 11.4943 10.0961 11.125C9.68981 10.7557 9.48668 10.267 9.48668 9.65909C9.48668 9.15625 9.62305 8.71733 9.89577 8.34233C10.1685 7.96733 10.5378 7.67614 11.0037 7.46875C11.4696 7.25852 11.9952 7.15341 12.5804 7.15341C13.1713 7.15341 13.6926 7.2571 14.1444 7.46449C14.5989 7.67188 14.9569 7.95739 15.2182 8.32102C15.4796 8.68182 15.6159 9.09659 15.6273 9.56534H14.3574Z" fill="white"/>
<path d="M1 12C1 5.64873 6.14873 0.5 12.5 0.5C18.8513 0.5 24 5.64873 24 12C24 18.3513 18.8513 23.5 12.5 23.5C6.14873 23.5 1 18.3513 1 12Z" stroke="#0D0D10"/>
<path d="M13 12C13 5.64873 18.1487 0.5 24.5 0.5C30.8513 0.5 36 5.64873 36 12C36 18.3513 30.8513 23.5 24.5 23.5C18.1487 23.5 13 18.3513 13 12Z" fill="#8B8D98"/>
<path d="M21.0057 16V7.27273H22.3224V11.0653H26.6733V7.27273H27.9943V16H26.6733V12.1946H22.3224V16H21.0057Z" fill="white"/>
<path d="M13 12C13 5.64873 18.1487 0.5 24.5 0.5C30.8513 0.5 36 5.64873 36 12C36 18.3513 30.8513 23.5 24.5 23.5C18.1487 23.5 13 18.3513 13 12Z" stroke="#0D0D10"/>
<path d="M25 12C25 5.64873 30.1487 0.5 36.5 0.5C42.8513 0.5 48 5.64873 48 12C48 18.3513 42.8513 23.5 36.5 23.5C30.1487 23.5 25 18.3513 25 12Z" fill="#18794E"/>
<path d="M33.533 16V7.27273H36.729C37.3484 7.27273 37.8612 7.375 38.2674 7.57955C38.6737 7.78125 38.9776 8.0554 39.1793 8.40199C39.381 8.74574 39.4819 9.13352 39.4819 9.56534C39.4819 9.92898 39.4151 10.2358 39.2816 10.4858C39.1481 10.733 38.9691 10.9318 38.7447 11.0824C38.5231 11.2301 38.2788 11.3381 38.0117 11.4062V11.4915C38.3015 11.5057 38.5842 11.5994 38.8597 11.7727C39.1381 11.9432 39.3683 12.1861 39.5501 12.5014C39.7319 12.8168 39.8228 13.2003 39.8228 13.652C39.8228 14.098 39.7177 14.4986 39.5075 14.8537C39.3001 15.206 38.979 15.4858 38.5444 15.6932C38.1097 15.8977 37.5543 16 36.8782 16H33.533ZM34.8498 14.8707H36.7504C37.381 14.8707 37.8327 14.7486 38.1055 14.5043C38.3782 14.2599 38.5146 13.9545 38.5146 13.5881C38.5146 13.3125 38.445 13.0597 38.3058 12.8295C38.1665 12.5994 37.9677 12.4162 37.7092 12.2798C37.4535 12.1435 37.1495 12.0753 36.7972 12.0753H34.8498V14.8707ZM34.8498 11.0483H36.614C36.9094 11.0483 37.1751 10.9915 37.4109 10.8778C37.6495 10.7642 37.8384 10.6051 37.9776 10.4006C38.1197 10.1932 38.1907 9.94886 38.1907 9.66761C38.1907 9.30682 38.0643 9.00426 37.8114 8.75994C37.5586 8.51562 37.1708 8.39347 36.6481 8.39347H34.8498V11.0483Z" fill="white"/>
<path d="M25 12C25 5.64873 30.1487 0.5 36.5 0.5C42.8513 0.5 48 5.64873 48 12C48 18.3513 42.8513 23.5 36.5 23.5C30.1487 23.5 25 18.3513 25 12Z" stroke="#0D0D10"/>
<path d="M37 12C37 5.64873 42.1487 0.5 48.5 0.5H58.5C64.8513 0.5 70 5.64873 70 12C70 18.3513 64.8513 23.5 58.5 23.5H48.5C42.1487 23.5 37 18.3513 37 12Z" fill="#EBEBEF"/>
<path d="M46.042 14.5341V8.77273H47.1883V14.5341H46.042ZM43.7366 12.2244V11.0824H49.498V12.2244H43.7366ZM51.1403 16V15.0455L54.0934 11.9858C54.4087 11.6534 54.6687 11.3622 54.8732 11.1122C55.0806 10.8594 55.2354 10.6193 55.3377 10.392C55.44 10.1648 55.4911 9.9233 55.4911 9.66761C55.4911 9.37784 55.4229 9.12784 55.2866 8.91761C55.1502 8.70455 54.9641 8.54119 54.7283 8.42756C54.4925 8.31108 54.2269 8.25284 53.9315 8.25284C53.619 8.25284 53.3462 8.31676 53.1133 8.4446C52.8803 8.57244 52.7013 8.75284 52.5763 8.9858C52.4513 9.21875 52.3888 9.49148 52.3888 9.80398H51.1317C51.1317 9.27273 51.2539 8.80824 51.4982 8.41051C51.7425 8.01278 52.0778 7.70455 52.5039 7.4858C52.93 7.2642 53.4144 7.15341 53.957 7.15341C54.5053 7.15341 54.9883 7.26278 55.4059 7.48153C55.8263 7.69744 56.1545 7.9929 56.3903 8.3679C56.6261 8.74006 56.744 9.16051 56.744 9.62926C56.744 9.95312 56.6829 10.2699 56.5607 10.5795C56.4414 10.8892 56.2326 11.2344 55.9343 11.6151C55.636 11.9929 55.2212 12.4517 54.69 12.9915L52.9556 14.8068V14.8707H56.8846V16H51.1403ZM59.7286 13.7798L59.72 12.2244H59.9416L62.5496 9.45455H64.0752L61.1007 12.608H60.9004L59.7286 13.7798ZM58.5567 16V7.27273H59.8308V16H58.5567ZM62.6902 16L60.3465 12.8892L61.2243 11.9986L64.2541 16H62.6902Z" fill="#1C2024"/>
<path d="M37 12C37 5.64873 42.1487 0.5 48.5 0.5H58.5C64.8513 0.5 70 5.64873 70 12C70 18.3513 64.8513 23.5 58.5 23.5H48.5C42.1487 23.5 37 18.3513 37 12Z" stroke="#0D0D10"/>
</svg>
