<svg width="127" height="32" viewBox="0 0 127 32" fill="none" xmlns="http://www.w3.org/2000/svg">
    <rect x="6" y="2" width="32" height="32" rx="8" fill="#37373B"/>
    <g filter="url(#filter0_d_515_9563)">
        <path fill-rule="evenodd" clip-rule="evenodd" d="M22 26.25C26.5563 26.25 30.25 22.5563 30.25 18C30.25 13.4437 26.5563 9.75 22 9.75C17.4437 9.75 13.75 13.4437 13.75 18C13.75 22.5563 17.4437 26.25 22 26.25ZM22 30C28.6274 30 34 24.6274 34 18C34 11.3726 28.6274 6 22 6C15.3726 6 10 11.3726 10 18C10 24.6274 15.3726 30 22 30Z" fill="url(#paint0_linear_515_9563)"/>
    </g>
    <path d="M122.134 24.3919C119.151 24.3919 117.155 22.2956 117.155 19.131C117.155 15.9462 119.151 13.8701 122.053 13.8701C124.976 13.8701 126.81 16.0067 126.81 19.0907C126.81 19.393 126.79 19.6752 126.79 19.776H119.231C119.272 21.4692 120.36 22.7189 122.134 22.7189C123.505 22.7189 124.412 21.8925 124.754 20.9854L126.528 21.4692C126.024 23.2027 124.311 24.3919 122.134 24.3919ZM119.252 18.2844H124.714C124.654 16.692 123.605 15.6036 122.033 15.6036C120.441 15.6036 119.332 16.7525 119.252 18.2844Z" fill="#E4E4E9"/>
    <path d="M106.83 24.1702V14.0918H108.866V15.7245H108.967C109.45 14.6361 110.579 13.85 112.172 13.85C114.328 13.85 115.84 15.2609 115.84 17.6596V24.1702H113.804V18.1434C113.804 16.8735 113.2 15.6238 111.506 15.6238C109.975 15.6238 108.866 16.7727 108.866 18.6876V24.1702H106.83Z" fill="#E4E4E9"/>
    <path d="M102.607 24.1702V14.0918H104.602V24.1702H102.607ZM102.284 11.3102C102.284 10.5845 102.869 10 103.615 10C104.36 10 104.945 10.5845 104.945 11.3102C104.945 12.056 104.36 12.6405 103.615 12.6405C102.869 12.6405 102.284 12.056 102.284 11.3102Z" fill="#E4E4E9"/>
    <path d="M98.4072 24.1702V10.1612H100.403V24.1702H98.4072Z" fill="#E4E4E9"/>
    <path d="M92.3457 13.8701C94.966 13.8701 96.9213 16.0269 96.9213 19.131C96.9213 22.1948 95.0064 24.3113 92.3658 24.3113C90.6122 24.3113 89.5036 23.4244 89.0399 22.4972H88.9392V28H86.9033V14.0918H88.9392V15.7043H89.0399C89.5036 14.7771 90.6122 13.8701 92.3457 13.8701ZM88.8988 19.0907C88.8988 21.2273 90.1889 22.5778 91.9022 22.5778C93.5954 22.5778 94.8653 21.2475 94.8653 19.1108C94.8653 16.9541 93.5752 15.6237 91.9022 15.6237C90.2292 15.6237 88.8988 16.9138 88.8988 19.0907Z" fill="#E4E4E9"/>
    <path d="M82.6809 24.1702V14.0918H84.6764V24.1702H82.6809ZM82.3584 11.3102C82.3584 10.5845 82.9429 10 83.6887 10C84.4345 10 85.0191 10.5845 85.0191 11.3102C85.0191 12.056 84.4345 12.6405 83.6887 12.6405C82.9429 12.6405 82.3584 12.056 82.3584 11.3102Z" fill="#E4E4E9"/>
    <path d="M76.9291 24.3919C74.0467 24.3919 71.8496 22.2755 71.8496 19.1108C71.8496 16.0067 73.9862 13.8701 76.909 13.8701C79.2673 13.8701 80.9202 15.2811 81.3838 17.0347L79.5898 17.5789C79.227 16.4905 78.3199 15.6439 76.9493 15.6439C75.0949 15.6439 73.8653 17.1153 73.8653 19.131C73.8653 21.2273 75.1755 22.6181 76.9694 22.6181C78.3401 22.6181 79.3076 21.7514 79.7108 20.6629L81.4241 21.1467C80.9 23.0011 79.2472 24.3919 76.9291 24.3919Z" fill="#E4E4E9"/>
    <path d="M66.8422 24.4524C64.2016 24.4524 62.71 23.0213 62.4883 21.57L64.4032 21.187C64.5846 22.0739 65.4715 22.8601 66.9228 22.8601C68.2934 22.8601 69.1602 22.1546 69.1602 21.2274C69.1602 20.3606 68.4144 20.159 67.6887 20.0583L65.3102 19.7156C63.6775 19.4939 62.71 18.3852 62.71 16.9541C62.71 15.0594 64.4032 13.8097 66.822 13.8097C68.8578 13.8097 70.5308 14.757 70.8735 16.4704L68.9989 16.9138C68.7167 15.9463 67.85 15.4424 66.7615 15.4424C65.7335 15.4424 64.7055 15.8858 64.7055 16.8533C64.7055 17.6798 65.4513 17.9821 66.0964 18.0829L68.3338 18.4054C69.14 18.5263 71.1759 18.9093 71.1759 21.0863C71.1759 23.1624 69.3013 24.4524 66.8422 24.4524Z" fill="#E4E4E9"/>
    <path d="M59.1125 24.1702V14.0918H61.1081V24.1702H59.1125ZM58.79 11.3102C58.79 10.5845 59.3746 10 60.1204 10C60.8662 10 61.4507 10.5845 61.4507 11.3102C61.4507 12.056 60.8662 12.6405 60.1204 12.6405C59.3746 12.6405 58.79 12.056 58.79 11.3102Z" fill="#E4E4E9"/>
    <path d="M46 24.1702V10.3628H50.6562C54.5868 10.3628 57.5297 12.8623 57.5297 17.2363C57.5297 21.6305 54.5666 24.1702 50.6562 24.1702H46ZM48.1165 22.2755H50.6159C53.2363 22.2755 55.3729 20.6025 55.3729 17.2363C55.3729 13.8701 53.2565 12.2374 50.6361 12.2374H48.1165V22.2755Z" fill="#E4E4E9"/>
    <defs>
        <filter id="filter0_d_515_9563" x="0" y="0" width="44" height="44" filterUnits="userSpaceOnUse" color-interpolation-filters="sRGB">
            <feFlood flood-opacity="0" result="BackgroundImageFix"/>
            <feColorMatrix in="SourceAlpha" type="matrix" values="0 0 0 0 0 0 0 0 0 0 0 0 0 0 0 0 0 0 127 0" result="hardAlpha"/>
            <feOffset dy="4"/>
            <feGaussianBlur stdDeviation="5"/>
            <feComposite in2="hardAlpha" operator="out"/>
            <feColorMatrix type="matrix" values="0 0 0 0 0 0 0 0 0 0 0 0 0 0 0 0 0 0 0.08 0"/>
            <feBlend mode="normal" in2="BackgroundImageFix" result="effect1_dropShadow_515_9563"/>
            <feBlend mode="normal" in="SourceGraphic" in2="effect1_dropShadow_515_9563" result="shape"/>
        </filter>
        <linearGradient id="paint0_linear_515_9563" x1="22" y1="3.5" x2="22" y2="30" gradientUnits="userSpaceOnUse">
            <stop stop-color="white" stop-opacity="0.53"/>
            <stop offset="0.599855" stop-color="white"/>
            <stop offset="1" stop-color="white" stop-opacity="0.43"/>
        </linearGradient>
    </defs>
</svg>
