<svg width="13" height="12" viewBox="0 0 13 12" fill="none" xmlns="http://www.w3.org/2000/svg">
<rect width="12" height="12" transform="translate(0.5)" fill="white" fill-opacity="0.01"/>
<path fill-rule="evenodd" clip-rule="evenodd" d="M1.20117 5.9999C1.20117 3.07375 3.57329 0.70163 6.49944 0.70163C9.42559 0.70163 11.7977 3.07375 11.7977 5.9999C11.7977 8.92599 9.42559 11.2982 6.49944 11.2982C3.57329 11.2982 1.20117 8.92599 1.20117 5.9999ZM6.49944 1.46163C3.99302 1.46163 1.96118 3.49348 1.96118 5.9999C1.96118 8.50631 3.99302 10.5382 6.49944 10.5382C9.00583 10.5382 11.0377 8.50631 11.0377 5.9999C11.0377 3.49348 9.00583 1.46163 6.49944 1.46163Z" fill="#A1A1A1"/>
<path opacity="0.05" fill-rule="evenodd" clip-rule="evenodd" d="M10.2292 3.08147C7.18617 3.91136 4.41112 6.68641 3.58122 9.72937L3.19531 9.62409C4.06248 6.44452 6.94428 3.56272 10.1239 2.69556L10.2292 3.08147Z" fill="#A1A1A1"/>
<path opacity="0.1" fill-rule="evenodd" clip-rule="evenodd" d="M10.0043 2.74166C6.92732 3.60434 4.10428 6.42738 3.2416 9.5044L2.85645 9.39648C3.75682 6.18497 6.68491 3.25688 9.89643 2.35651L10.0043 2.74166Z" fill="#A1A1A1"/>
<path opacity="0.15" fill-rule="evenodd" clip-rule="evenodd" d="M9.71608 2.42045C6.65273 3.3296 3.83423 6.14659 2.92244 9.2096L2.53906 9.09552C3.48941 5.90296 6.40927 2.98461 9.60224 2.03699L9.71608 2.42045Z" fill="#A1A1A1"/>
<path opacity="0.2" fill-rule="evenodd" clip-rule="evenodd" d="M9.33741 2.12935C6.3489 3.10131 3.60331 5.84631 2.63035 8.83471L2.25 8.71087C3.26256 5.60087 6.10353 2.76049 9.21365 1.74896L9.33741 2.12935Z" fill="#A1A1A1"/>
<path opacity="0.25" fill-rule="evenodd" clip-rule="evenodd" d="M8.91601 1.85893C6.03666 2.89159 3.39906 5.52702 2.36269 8.40585L1.98633 8.27041C3.06311 5.27929 5.78917 2.55541 8.78097 1.48242L8.91601 1.85893Z" fill="#A1A1A1"/>
<path opacity="0.3" fill-rule="evenodd" clip-rule="evenodd" d="M8.42165 1.62499C5.6999 2.71573 3.21962 5.19495 2.12707 7.91642L1.75586 7.7674C2.88908 4.94462 5.4497 2.38508 8.27285 1.25369L8.42165 1.62499Z" fill="#A1A1A1"/>
<path opacity="0.35" fill-rule="evenodd" clip-rule="evenodd" d="M7.86615 1.43097C5.34942 2.56278 3.06916 4.84161 1.93498 7.35789L1.57031 7.19352C2.74462 4.58821 5.09622 2.23807 7.7021 1.06616L7.86615 1.43097Z" fill="#A1A1A1"/>
<path opacity="0.4" fill-rule="evenodd" clip-rule="evenodd" d="M7.22614 1.29667C4.97502 2.44093 2.94679 4.46806 1.80079 6.71877L1.44434 6.53727C2.62873 4.21117 4.7183 2.12271 7.0449 0.940094L7.22614 1.29667Z" fill="#A1A1A1"/>
<path opacity="0.45" fill-rule="evenodd" clip-rule="evenodd" d="M6.46954 1.25398C4.5694 2.35756 2.86278 4.0633 1.75788 5.96303L1.41211 5.76193C2.55191 3.80219 4.30844 2.04655 6.26865 0.908081L6.46954 1.25398Z" fill="#A1A1A1"/>
<path opacity="0.5" fill-rule="evenodd" clip-rule="evenodd" d="M5.5435 1.36389C4.11595 2.3285 2.82811 3.61649 1.86368 5.0441L1.53223 4.82019C2.52528 3.35018 3.84963 2.02571 5.31955 1.03247L5.5435 1.36389Z" fill="#A1A1A1"/>
</svg>
