<svg width="114" height="44" viewBox="0 0 114 44" fill="none" xmlns="http://www.w3.org/2000/svg">
<rect x="6" y="2" width="32" height="32" rx="4" fill="#37373B"/>
<g filter="url(#filter0_d_215_64694)">
<path fill-rule="evenodd" clip-rule="evenodd" d="M22 26.25C26.5563 26.25 30.25 22.5563 30.25 18C30.25 13.4437 26.5563 9.75 22 9.75C17.4437 9.75 13.75 13.4437 13.75 18C13.75 22.5563 17.4437 26.25 22 26.25ZM22 30C28.6274 30 34 24.6274 34 18C34 11.3726 28.6274 6 22 6C15.3726 6 10 11.3726 10 18C10 24.6274 15.3726 30 22 30Z" fill="url(#paint0_linear_215_64694)"/>
</g>
<path d="M109.445 22.4933C106.959 22.4933 105.296 20.7464 105.296 18.1092C105.296 15.4552 106.959 13.7251 109.378 13.7251C111.813 13.7251 113.342 15.5056 113.342 18.0756C113.342 18.3275 113.325 18.5627 113.325 18.6467H107.026C107.06 20.0577 107.967 21.0991 109.445 21.0991C110.587 21.0991 111.343 20.4104 111.628 19.6545L113.107 20.0577C112.687 21.5022 111.259 22.4933 109.445 22.4933ZM107.043 17.4037H111.595C111.545 16.0767 110.671 15.1696 109.361 15.1696C108.034 15.1696 107.11 16.1271 107.043 17.4037Z" fill="#E4E4E9"/>
<path d="M96.6914 22.3085V13.9099H98.3879V15.2705H98.4719C98.8751 14.3634 99.8157 13.7083 101.143 13.7083C102.94 13.7083 104.2 14.8841 104.2 16.883V22.3085H102.503V17.2861C102.503 16.2279 101.999 15.1865 100.588 15.1865C99.3118 15.1865 98.3879 16.1439 98.3879 17.7397V22.3085H96.6914Z" fill="#E4E4E9"/>
<path d="M93.1721 22.3085V13.9099H94.835V22.3085H93.1721ZM92.9033 11.5918C92.9033 10.9871 93.3904 10.5 94.0119 10.5C94.6334 10.5 95.1206 10.9871 95.1206 11.5918C95.1206 12.2133 94.6334 12.7005 94.0119 12.7005C93.3904 12.7005 92.9033 12.2133 92.9033 11.5918Z" fill="#E4E4E9"/>
<path d="M89.6729 22.3085V10.6344H91.3358V22.3085H89.6729Z" fill="#E4E4E9"/>
<path d="M84.6212 13.7251C86.8049 13.7251 88.4342 15.5224 88.4342 18.1092C88.4342 20.6624 86.8385 22.4261 84.638 22.4261C83.1766 22.4261 82.2528 21.687 81.8665 20.9143H81.7825V25.5H80.0859V13.9098H81.7825V15.2536H81.8665C82.2528 14.4809 83.1766 13.7251 84.6212 13.7251ZM81.7489 18.0756C81.7489 19.8561 82.8239 20.9815 84.2517 20.9815C85.6627 20.9815 86.7209 19.8729 86.7209 18.0924C86.7209 16.2951 85.6459 15.1864 84.2517 15.1864C82.8575 15.1864 81.7489 16.2615 81.7489 18.0756Z" fill="#E4E4E9"/>
<path d="M76.5676 22.3085V13.9099H78.2305V22.3085H76.5676ZM76.2988 11.5918C76.2988 10.9871 76.786 10.5 77.4075 10.5C78.029 10.5 78.5161 10.9871 78.5161 11.5918C78.5161 12.2133 78.029 12.7005 77.4075 12.7005C76.786 12.7005 76.2988 12.2133 76.2988 11.5918Z" fill="#E4E4E9"/>
<path d="M71.7739 22.4933C69.3719 22.4933 67.541 20.7296 67.541 18.0924C67.541 15.5056 69.3215 13.7251 71.7571 13.7251C73.7224 13.7251 75.0998 14.9009 75.4862 16.3622L73.9912 16.8158C73.6888 15.9087 72.933 15.2032 71.7907 15.2032C70.2454 15.2032 69.2207 16.4294 69.2207 18.1092C69.2207 19.8561 70.3126 21.0151 71.8075 21.0151C72.9498 21.0151 73.756 20.2928 74.092 19.3858L75.5197 19.7889C75.083 21.3343 73.7056 22.4933 71.7739 22.4933Z" fill="#E4E4E9"/>
<path d="M63.3685 22.5437C61.168 22.5437 59.925 21.3511 59.7402 20.1417L61.336 19.8225C61.4872 20.5616 62.2262 21.2167 63.4356 21.2167C64.5779 21.2167 65.3002 20.6288 65.3002 19.8561C65.3002 19.1338 64.6786 18.9659 64.0739 18.8819L62.0919 18.5963C60.7313 18.4116 59.925 17.4877 59.925 16.2951C59.925 14.7161 61.336 13.6747 63.3517 13.6747C65.0482 13.6747 66.4424 14.4642 66.7279 15.892L65.1658 16.2615C64.9306 15.4552 64.2083 15.0353 63.3013 15.0353C62.4446 15.0353 61.5879 15.4048 61.5879 16.2111C61.5879 16.8998 62.2094 17.1518 62.747 17.2357L64.6115 17.5045C65.2834 17.6053 66.9799 17.9244 66.9799 19.7385C66.9799 21.4687 65.4177 22.5437 63.3685 22.5437Z" fill="#E4E4E9"/>
<path d="M56.927 22.3085V13.9099H58.5899V22.3085H56.927ZM56.6582 11.5918C56.6582 10.9871 57.1453 10.5 57.7668 10.5C58.3883 10.5 58.8754 10.9871 58.8754 11.5918C58.8754 12.2133 58.3883 12.7005 57.7668 12.7005C57.1453 12.7005 56.6582 12.2133 56.6582 11.5918Z" fill="#E4E4E9"/>
<path d="M46 22.3085V10.8024H49.8802C53.1557 10.8024 55.6081 12.8852 55.6081 16.5302C55.6081 20.1921 53.1389 22.3085 49.8802 22.3085H46ZM47.7637 20.7296H49.8466C52.0302 20.7296 53.8108 19.3354 53.8108 16.5302C53.8108 13.7251 52.047 12.3645 49.8634 12.3645H47.7637V20.7296Z" fill="#E4E4E9"/>
<defs>
<filter id="filter0_d_215_64694" x="0" y="0" width="44" height="44" filterUnits="userSpaceOnUse" color-interpolation-filters="sRGB">
<feFlood flood-opacity="0" result="BackgroundImageFix"/>
<feColorMatrix in="SourceAlpha" type="matrix" values="0 0 0 0 0 0 0 0 0 0 0 0 0 0 0 0 0 0 127 0" result="hardAlpha"/>
<feOffset dy="4"/>
<feGaussianBlur stdDeviation="5"/>
<feComposite in2="hardAlpha" operator="out"/>
<feColorMatrix type="matrix" values="0 0 0 0 0 0 0 0 0 0 0 0 0 0 0 0 0 0 0.08 0"/>
<feBlend mode="normal" in2="BackgroundImageFix" result="effect1_dropShadow_215_64694"/>
<feBlend mode="normal" in="SourceGraphic" in2="effect1_dropShadow_215_64694" result="shape"/>
</filter>
<linearGradient id="paint0_linear_215_64694" x1="22" y1="3.5" x2="22" y2="30" gradientUnits="userSpaceOnUse">
<stop stop-color="white" stop-opacity="0.53"/>
<stop offset="0.599855" stop-color="white"/>
<stop offset="1" stop-color="white" stop-opacity="0.43"/>
</linearGradient>
</defs>
</svg>
